<?xml version="1.0" encoding="UTF-8"?>
<svg xmlns="http://www.w3.org/2000/svg" xmlns:xlink="http://www.w3.org/1999/xlink"
     width="1664.5" height="625.0" viewBox="-582.0 -190.0 1664.5 625.0">
<defs>
<marker markerWidth="10" markerHeight="10" viewBox="-8 -5 10 10" orient="auto-start-reverse" id="d0">
<path d="M-8,3 L-8,-3 L2,0 Z" fill="black" />
</marker>
<marker markerWidth="10" markerHeight="10" viewBox="-8 -5 10 10" orient="auto-start-reverse" id="d1">
<path d="M-8,3 L-8,-3 L2,0 Z" fill="black" />
</marker>
<marker markerWidth="10" markerHeight="10" viewBox="-8 -5 10 10" orient="auto-start-reverse" id="d2">
<path d="M-8,3 L-8,-3 L2,0 Z" fill="black" />
</marker>
<marker markerWidth="10" markerHeight="10" viewBox="-8 -5 10 10" orient="auto-start-reverse" id="d3">
<path d="M-8,3 L-8,-3 L2,0 Z" fill="black" />
</marker>
<marker markerWidth="10" markerHeight="10" viewBox="-8 -5 10 10" orient="auto-start-reverse" id="d4">
<path d="M-8,3 L-8,-3 L2,0 Z" fill="black" />
</marker>
<marker markerWidth="10" markerHeight="10" viewBox="-8 -5 10 10" orient="auto-start-reverse" id="d5">
<path d="M-8,3 L-8,-3 L2,0 Z" fill="black" />
</marker>
<marker markerWidth="10" markerHeight="10" viewBox="-8 -5 10 10" orient="auto-start-reverse" id="d6">
<path d="M-8,3 L-8,-3 L2,0 Z" fill="black" />
</marker>
<marker markerWidth="10" markerHeight="10" viewBox="-8 -5 10 10" orient="auto-start-reverse" id="d7">
<path d="M-8,3 L-8,-3 L2,0 Z" fill="black" />
</marker>
<marker markerWidth="10" markerHeight="10" viewBox="-8 -5 10 10" orient="auto-start-reverse" id="d8">
<path d="M-8,3 L-8,-3 L2,0 Z" fill="black" />
</marker>
<marker markerWidth="10" markerHeight="10" viewBox="-8 -5 10 10" orient="auto-start-reverse" id="d9">
<path d="M-8,3 L-8,-3 L2,0 Z" fill="black" />
</marker>
<marker markerWidth="10" markerHeight="10" viewBox="-8 -5 10 10" orient="auto-start-reverse" id="d10">
<path d="M-8,3 L-8,-3 L2,0 Z" fill="black" />
</marker>
<marker markerWidth="10" markerHeight="10" viewBox="-8 -5 10 10" orient="auto-start-reverse" id="d11">
<path d="M-8,3 L-8,-3 L2,0 Z" fill="black" />
</marker>
</defs>
<rect x="-582.0" y="-190.0" width="1664.5" height="625.0" fill="white" stroke="none" />
<path d="M-337.5,230.0 L-337.5,238.0 Q-337.5,264.625,-406.75,264.625 Q-476.0,264.625,-476.0,238.0 L-476.0,210" stroke="black" stroke-width="2" fill="none" />
<path d="M-280.0,230.0 L-280.0,238.0 Q-280.0,293.0,-406.0,293.0 Q-532.0,293.0,-532.0,238.0 L-532.0,175.0" stroke="black" stroke-width="2" fill="none" />
<path d="M-476.0,210 L-476.0,182.0 Q-476.0,158.25,-412.5,158.25 Q-349.0,158.25,-349.0,182.0 L-349.0,190.0" stroke="black" stroke-width="2" fill="none" marker-end="url(#d0)" />
<text x="-412.5" y="158.25" font-size="20" text-anchor="middle" dominant-baseline="middle" font-family="Arial" fill="white" stroke="white" stroke-width="14" stroke-miterlimit="1">STOP</text>
<text x="-412.5" y="158.25" font-size="20" text-anchor="middle" dominant-baseline="middle" font-family="Arial" fill="black">STOP</text>
<path d="M-532.0,175.0 L-532.0,167.0 Q-532.0,117.75,-417.5,117.75 Q-303.0,117.75,-303.0,167.0 L-303.0,190.0" stroke="black" stroke-width="2" fill="none" marker-end="url(#d1)" />
<text x="-417.5" y="117.75" font-size="20" text-anchor="middle" dominant-baseline="middle" font-family="Arial" fill="white" stroke="white" stroke-width="14" stroke-miterlimit="1">START_MANUAL_MOVE</text>
<text x="-417.5" y="117.75" font-size="20" text-anchor="middle" dominant-baseline="middle" font-family="Arial" fill="black">START_MANUAL_MOVE</text>
<path d="M-257.0,190.0 L-257.0,-28.0 Q-257.0,-74.66666666666667,-147.66666666666666,-74.66666666666667 Q-38.33333333333333,-74.66666666666667,-38.33333333333333,-28.0 L-38.33333333333333,-20.0" stroke="black" stroke-width="2" fill="none" marker-end="url(#d2)" />
<text x="-147.66666666666666" y="-74.66666666666667" font-size="20" text-anchor="middle" dominant-baseline="middle" font-family="Arial" fill="white" stroke="white" stroke-width="14" stroke-miterlimit="1">MOTORS_STOPPED</text>
<text x="-147.66666666666666" y="-74.66666666666667" font-size="20" text-anchor="middle" dominant-baseline="middle" font-family="Arial" fill="black">MOTORS_STOPPED</text>
<path d="M-38.33333333333333,20.0 L-38.33333333333333,28.0 Q-38.33333333333333,105.0,-124.66666666666666,105.0 Q-211.0,105.0,-211.0,182.0 L-211.0,190.0" stroke="black" stroke-width="2" fill="none" marker-end="url(#d3)" />
<text x="-124.66666666666666" y="105.0" font-size="20" text-anchor="middle" dominant-baseline="middle" font-family="Arial" fill="white" stroke="white" stroke-width="14" stroke-miterlimit="1">START_MANUAL_MOVE</text>
<text x="-124.66666666666666" y="105.0" font-size="20" text-anchor="middle" dominant-baseline="middle" font-family="Arial" fill="black">START_MANUAL_MOVE</text>
<path d="M56.0,-120.0 L38.33333333333334,-20.0" stroke="black" stroke-width="2" fill="none" marker-end="url(#d4)" />
<path d="M211.0,230.0 L211.0,238.0 Q211.0,261.75,147.5,261.75 Q84.0,261.75,84.0,238.0 L84.0,210" stroke="black" stroke-width="2" fill="none" />
<path d="M84.0,210 L84.0,182.0 Q84.0,150.58333333333331,162.83333333333334,150.58333333333331 Q241.66666666666669,150.58333333333331,241.66666666666669,182.0 L241.66666666666669,190.0" stroke="black" stroke-width="2" fill="none" marker-end="url(#d5)" />
<text x="162.83333333333334" y="150.58333333333331" font-size="20" text-anchor="middle" dominant-baseline="middle" font-family="Arial" fill="white" stroke="white" stroke-width="14" stroke-miterlimit="1">STOP</text>
<text x="162.83333333333334" y="150.58333333333331" font-size="20" text-anchor="middle" dominant-baseline="middle" font-family="Arial" fill="black">STOP</text>
<path d="M-222.5,230.0 L-222.5,238.0 Q-222.5,349.875,17.25,349.875 Q257.0,349.875,257.0,238.0 L257.0,230.0" stroke="black" stroke-width="2" fill="none" marker-end="url(#d6)" />
<text x="17.25" y="349.875" font-size="20" text-anchor="middle" dominant-baseline="middle" font-family="Arial" fill="white" stroke="white" stroke-width="14" stroke-miterlimit="1">START_SUN_TRACKING</text>
<text x="17.25" y="349.875" font-size="20" text-anchor="middle" dominant-baseline="middle" font-family="Arial" fill="black">START_SUN_TRACKING</text>
<path d="M38.33333333333334,20.0 L38.33333333333334,28.0 Q38.33333333333334,105.0,178.33333333333337,105.0 Q318.33333333333337,105.0,318.33333333333337,182.0 L318.33333333333337,190.0" stroke="black" stroke-width="2" fill="none" marker-end="url(#d7)" />
<text x="178.33333333333337" y="105.0" font-size="20" text-anchor="middle" dominant-baseline="middle" font-family="Arial" fill="white" stroke="white" stroke-width="14" stroke-miterlimit="1">START_SUN_TRACKING</text>
<text x="178.33333333333337" y="105.0" font-size="20" text-anchor="middle" dominant-baseline="middle" font-family="Arial" fill="black">START_SUN_TRACKING</text>
<path d="M280,0 L115.0,0.0" stroke="black" stroke-width="2" fill="none" marker-end="url(#d8)" />
<path d="M840,0 L280,0" stroke="black" stroke-width="2" fill="none" />
<path d="M815.0,210.0 L823.0,210.0 Q920.0,210.0,920.0,105.0 Q920.0,0,823.0,0 L280,0" stroke="black" stroke-width="2" fill="none" />
<text x="920.0" y="105.0" font-size="20" text-anchor="middle" dominant-baseline="middle" font-family="Arial" fill="white" stroke="white" stroke-width="14" stroke-miterlimit="1">STOP</text>
<text x="920.0" y="105.0" font-size="20" text-anchor="middle" dominant-baseline="middle" font-family="Arial" fill="black">STOP</text>
<path d="M395.0,203.33333333333334 L403.0,203.33333333333334 Q496.6666666666667,203.33333333333334,496.6666666666667,101.66666666666667 Q496.6666666666667,0,403.0,0 L280,0" stroke="black" stroke-width="2" fill="none" />
<text x="496.6666666666667" y="101.66666666666667" font-size="20" text-anchor="middle" dominant-baseline="middle" font-family="Arial" fill="white" stroke="white" stroke-width="14" stroke-miterlimit="1">ABORTED</text>
<text x="496.6666666666667" y="101.66666666666667" font-size="20" text-anchor="middle" dominant-baseline="middle" font-family="Arial" fill="black">ABORTED</text>
<path d="M395.0,216.66666666666666 L585.0,210.0" stroke="black" stroke-width="2" fill="none" marker-end="url(#d9)" />
<text x="490.0" y="213.33333333333331" font-size="20" text-anchor="middle" dominant-baseline="middle" font-family="Arial" fill="white" stroke="white" stroke-width="14" stroke-miterlimit="1">SUCCESS</text>
<text x="490.0" y="213.33333333333331" font-size="20" text-anchor="middle" dominant-baseline="middle" font-family="Arial" fill="black">SUCCESS</text>
<path d="M303.0,230.0 L336.0,365.0" stroke="black" stroke-width="2" fill="none" marker-end="url(#d10)" />
<text x="319.5" y="297.5" font-size="20" text-anchor="middle" dominant-baseline="middle" font-family="Arial" fill="white" stroke="white" stroke-width="14" stroke-miterlimit="1">ERROR</text>
<text x="319.5" y="297.5" font-size="20" text-anchor="middle" dominant-baseline="middle" font-family="Arial" fill="black">ERROR</text>
<path d="M700.0,230.0 L700.0,238.0 Q700.0,317.75,524.5,317.75 Q349.0,317.75,349.0,238.0 L349.0,230.0" stroke="black" stroke-width="2" fill="none" marker-end="url(#d11)" />
<text x="524.5" y="317.75" font-size="20" text-anchor="middle" dominant-baseline="middle" font-family="Arial" fill="white" stroke="white" stroke-width="14" stroke-miterlimit="1">TIMEOUT</text>
<text x="524.5" y="317.75" font-size="20" text-anchor="middle" dominant-baseline="middle" font-family="Arial" fill="black">TIMEOUT</text>
<path d="M451.0,385.0 L848,385.0 Q1032.5,385.0,1032.5,192.5 Q1032.5,0,848,0 L840,0" stroke="black" stroke-width="2" fill="none" />
<text x="1032.5" y="192.5" font-size="20" text-anchor="middle" dominant-baseline="middle" font-family="Arial" fill="white" stroke="white" stroke-width="14" stroke-miterlimit="1">STOP</text>
<text x="1032.5" y="192.5" font-size="20" text-anchor="middle" dominant-baseline="middle" font-family="Arial" fill="black">STOP</text>
<rect x="-59.0" y="-160.0" width="230.0" height="40.0" fill="#bcd7ff" stroke="black" stroke-width="2" rx="20.0" />
<text x="56.0" y="-140" font-size="20" text-anchor="middle" dominant-baseline="middle" font-family="Arial">UNINITIALIZED</text>
<rect x="-115.0" y="-20.0" width="230.0" height="40.0" fill="#bcd7ff" stroke="black" stroke-width="2" rx="20.0" />
<text x="0" y="0" font-size="20" text-anchor="middle" dominant-baseline="middle" font-family="Arial">IDLE</text>
<rect x="-395.0" y="190.0" width="230.0" height="40.0" fill="#bcd7ff" stroke="black" stroke-width="2" rx="20.0" />
<text x="-280" y="210" font-size="20" text-anchor="middle" dominant-baseline="middle" font-family="Arial">MANUAL_MOVING</text>
<rect x="165.0" y="190.0" width="230.0" height="40.0" fill="#bcd7ff" stroke="black" stroke-width="2" rx="20.0" />
<text x="280" y="210" font-size="20" text-anchor="middle" dominant-baseline="middle" font-family="Arial">SUN_TRACKING</text>
<rect x="585.0" y="190.0" width="230.0" height="40.0" fill="#bcd7ff" stroke="black" stroke-width="2" rx="20.0" />
<text x="700.0" y="210" font-size="20" text-anchor="middle" dominant-baseline="middle" font-family="Arial">WAITING_SUN_MOVE</text>
<rect x="221.0" y="365.0" width="230.0" height="40.0" fill="#bcd7ff" stroke="black" stroke-width="2" rx="20.0" />
<text x="336.0" y="385.0" font-size="20" text-anchor="middle" dominant-baseline="middle" font-family="Arial">ERROR</text>
</svg>